<?xml version="1.0" encoding="utf-8"?>
<!-- Generator: Adobe Illustrator 27.0.0, SVG Export Plug-In . SVG Version: 6.00 Build 0)  -->
<svg version="1.1" id="Ebene_1" xmlns="http://www.w3.org/2000/svg" xmlns:xlink="http://www.w3.org/1999/xlink" x="0px" y="0px"
	 viewBox="0 0 512 512" style="enable-background:new 0 0 512 512;" xml:space="preserve">
<style type="text/css">
	.st0{fill:#BFBFBF;stroke:#BFBFBF;stroke-miterlimit:10;}
</style>
<path class="st0" d="M424.8,281.6c-14.7,0-29.2,3.3-42.4,9.6c-4.3-8.5-8.8-16-9.5-21.5c-0.9-6.5-1.9-10.3-0.8-18
	c1.1-7.7,5.7-18.6,5.6-19.5c-0.1-0.8-1.1-4.7-10.4-4.8s-17.5,1.8-18.5,4.2c-1.7,4.5-2.9,9-3.9,13.6c-1.7,8.4-18.8,38.2-28.5,53.8
	c-3.2-6-5.9-11.4-6.5-15.7c-0.9-6.5-1.9-10.3-0.8-18s5.7-18.6,5.6-19.5c-0.1-0.8-1.1-4.7-10.4-4.8s-17.5,1.8-18.5,4.2
	s-1.9,8.2-3.9,13.6c-2,5.4-24.7,55.2-30.8,68.2c-3.1,6.6-5.7,11.9-7.6,15.4c-0.3,0.6-0.5,1-0.7,1.2c0.2-0.4,0.4-0.7,0.4-0.6
	c-1.6,3.1-2.5,4.8-2.5,4.8v0.1c-1.3,2.3-2.6,4.4-3.3,4.4c-0.4,0-1.4-6,0.2-14.2c3.4-17.2,11.6-44.1,11.5-45.1
	c-0.1-0.5,1.6-5.2-5.4-7.6c-6.6-2.3-9.1,1.6-9.6,1.6s-1.1,1.5-1.1,1.5s7.4-30.3-14.1-30.3c-13.4,0-32.2,14.4-41.3,27.5
	c-5.7,3.1-18.3,9.7-31.5,16.8c-5.1,2.7-10.2,5.5-15.1,8.2c-0.4-0.4-0.7-0.7-1.1-1.1c-26.1-27.3-74.4-46.6-72.4-83.2
	c0.8-13.3,5.5-48.4,92.9-91c71.6-34.9,128.9-25.3,138.8-4c14.1,30.4-30.6,86.9-104.9,95c-28.4,3.1-41.4-8.9-45.1-12.9
	c-3.9-4.2-4.5-4.4-5.9-3.6c-2.4,1.3-0.9,5,0,7.2c2.2,5.7,12,14.5,27.6,19.5c13.6,4.4,45,8,85.3-7.2c45.1-17.1,79.6-63.2,69.4-102.9
	C305.1,86.2,236.8,73,172.2,95.4c-38.5,13.3-80.2,34.4-110.1,61.8c-35.6,32.5-41.3,60.9-39,72.8c8.3,42.1,67.6,69.5,91.4,89.8
	c-1.2,0.7-2.2,1.2-3.3,1.8c-11.9,5.7-56.1,28.5-67.4,52.9c-12.8,27.7,2.1,47.6,11.9,50.3c30.5,8.3,60.8-6.2,77.6-30.7
	c16.8-24.6,14.8-56.5,7-71.1c-0.1-0.2-0.2-0.4-0.3-0.6c3.1-1.8,6.2-3.6,9.4-5.4c6-3.5,12-6.7,17.1-9.5c-2.9,7.7-5.1,17.1-6.1,30.4
	c-1.3,15.7,5.4,36.1,13.9,44c3.8,3.5,8.4,3.6,11.2,3.6c10.1,0,14.6-8.2,19.7-17.8c6.2-11.9,11.7-25.6,11.7-25.6s-6.9,37.3,11.9,37.3
	c6.8,0,13.7-8.7,16.8-13.1v0.1c0,0,0.1-0.3,0.5-0.9c0.8-1.1,1.1-1.8,1.1-1.8v-0.2c2.7-4.7,8.9-15.3,17.9-32.8
	c11.8-22.7,23.2-51.1,23.2-51.1c1.1,6.2,2.6,12.4,4.6,18.4c2,6.8,6.3,14.2,9.7,21.4c-2.7,3.7-4.5,5.8-4.5,5.8c0,0.1,0,0.1,0.1,0.1
	c-2.2,2.8-4.7,5.9-7.2,9c-9.4,10.9-20.5,23.3-21.9,26.9c-1.8,4.2-1.3,7.4,2,9.7c2.4,1.9,6.9,2.1,11.5,1.8c8.4-0.6,14.3-2.5,17.1-3.9
	c5.3-1.9,10.2-4.4,14.7-7.6c9.2-6.6,14.7-16,14.1-28.5c-0.3-6.8-2.5-13.7-5.4-20.2c0.8-1.2,1.7-2.3,2.4-3.6
	c14.4-20.7,25.6-43.3,25.6-43.3c1.1,6.2,2.6,12.4,4.6,18.4c1.8,5.7,5.2,12.2,8.3,18.3c-13.5,10.8-22,23.3-24.9,31.5
	c-5.5,15.2-1.2,22.1,6.8,23.7c3.6,0.7,8.7-1,12.5-2.5c5.7-1.9,10.9-4.5,15.8-7.9c9.2-6.6,17.9-15.8,17.3-28.3
	c-0.2-5.7-1.9-11.3-3.9-16.8c11.5-4.7,26.4-7.3,45.4-5.2c40.7,4.7,48.6,29.5,47.2,39.9c-1.6,10.3-10.1,16.2-13,17.8
	c-2.8,1.7-3.7,2.3-3.5,3.6c0.4,1.9,1.7,1.8,4.1,1.4c3.4-0.6,21.3-8.5,22.1-27.7C490.9,308.1,467,281.4,424.8,281.6L424.8,281.6z
	 M111.1,385c-13.4,14.3-32.3,19.8-40.4,15.2c-8.7-5-5.3-26.1,11.3-41.4c10.1-9.3,23.1-17.8,31.7-23.2c1.9-1.2,4.8-2.8,8.3-5
	c0.6-0.4,0.9-0.5,0.9-0.5c0.7-0.4,1.4-0.8,2.1-1.2C131.2,350.8,125.3,369.9,111.1,385L111.1,385z M209.3,319.7
	c-4.7,11.2-14.5,39.8-20.6,38.3c-5.1-1.3-8.3-23.1-1.1-44.5c3.6-10.8,11.4-23.7,16-28.6c7.4-8.1,15.5-10.6,17.3-7.4
	C223.7,281.6,212.2,312.7,209.3,319.7L209.3,319.7z M290.5,357.6c-1.9,1-3.8,1.7-4.7,1.2c-0.7-0.4,0.8-1.8,0.8-1.8
	s10.1-10.6,14.1-15.5c2.3-2.8,5.1-6.2,8-9.9c0,0.4,0.1,0.7,0.1,1.2C308.7,345.5,296.1,354.1,290.5,357.6L290.5,357.6L290.5,357.6z
	 M353,343.7c-1.5-1-1.3-4.4,3.6-14.8c1.9-4.1,6.2-10.9,13.9-17.5c0.9,2.5,1.4,5.1,1.4,7.7C371.9,335.1,360.1,341.2,353,343.7
	L353,343.7z"/>
</svg>
