<?xml version="1.0" encoding="utf-8"?>
<!-- Generator: Adobe Illustrator 27.0.0, SVG Export Plug-In . SVG Version: 6.00 Build 0)  -->
<svg version="1.1" id="Layer_1" xmlns="http://www.w3.org/2000/svg" xmlns:xlink="http://www.w3.org/1999/xlink" x="0px" y="0px"
	 viewBox="0 0 512 512" style="enable-background:new 0 0 512 512;" xml:space="preserve">
<style type="text/css">
	.st0{fill:#BFBFBF;}
</style>
<path class="st0" d="M314,36.4c-18.6-3.1-45.8-4.5-64.3-4.4c-17.3,0-34.6,1.5-51.7,4.4c-45.7,8-54.1,24.7-54.1,55.5V128h112v16
	H107.6c-41.6,0-75.3,49.7-75.6,111.1c0,0.3,0,0.6,0,0.9c0,10.7,1,21.5,3.1,32c9.3,46.3,38.2,80,72.5,80H128v-54
	c0-31.3,20.8-59.9,55-66.1l9.9-1.2H314c5.1,0,10.2-0.7,15.1-2c23.1-6.2,39.1-27.1,38.9-51V91.9C368,63,343.3,41.2,314,36.4z
	 M194.9,105.5c-11.2,0-20.4-9.1-20.4-20.3s9.1-20.4,20.3-20.4s20.4,9.1,20.4,20.3c0,0,0,0.1,0,0.1
	C215.2,96.4,206.2,105.5,194.9,105.5C194.9,105.5,194.9,105.5,194.9,105.5z"/>
<path class="st0" d="M475.3,217c-10.7-42.6-38.4-73-70.9-73h-17.7v47.4c0,39.6-26,68.2-57.7,73.1c-3.2,0.5-6.4,0.7-9.7,0.8H198.1
	c-5.1,0-10.3,0.7-15.2,2c-22.3,5.9-38.9,24.4-38.9,48.5v101.8c0,29,29.1,46,57.7,54.3c34.2,10,71.5,11.8,112.4,0
	c27.2-7.8,53.9-23.5,53.9-54.3V384H256v-16h148.4c29.4,0,55-24.9,67.5-61.3c5.5-16.3,8.2-33.5,8.2-50.7
	C480,242.9,478.4,229.8,475.3,217z M316.5,404c11.2,0,20.4,9.1,20.4,20.3c0,11.2-9.1,20.4-20.3,20.4c-11.2,0-20.4-9.1-20.4-20.3
	c0,0,0-0.1,0-0.1C296.2,413.1,305.3,404,316.5,404C316.5,404,316.5,404,316.5,404z"/>
</svg>
