<?xml version="1.0" encoding="utf-8"?>
<!-- Generator: Adobe Illustrator 27.0.0, SVG Export Plug-In . SVG Version: 6.00 Build 0)  -->
<svg version="1.1" id="Layer_1" xmlns="http://www.w3.org/2000/svg" xmlns:xlink="http://www.w3.org/1999/xlink" x="0px" y="0px"
	 viewBox="0 0 512 512" style="enable-background:new 0 0 512 512;" xml:space="preserve">
<style type="text/css">
	.st0{fill:#BFBFBF;stroke:#BFBFBF;stroke-miterlimit:10;}
</style>
<path id="_Group_" class="st0" d="M192.6,254.9c3.4-6.9,6.9-13.8,10.6-20.6v-0.1l3.9-7.6l5.7-9.5V217c2.1-3.6,4.4-7.3,6.6-10.9
	l3.9-6.5c5.3-8.7,9.5-15.1,16.2-24.3c3.6-4.9,7-9.3,12.4-16.1l0,0l0.3-0.4l0.1-0.1c2.2-2.8,4.4-5.6,6.6-8.2l0.1-0.1v-0.1
	c5-6.2,10.2-12.5,15.3-18.6l2-2.4V93.6h-3.7c-2-1.8-4-3.7-5.9-5.4c-16.1-14.3-32.2-25.6-47.9-33.4c-16-8-30.8-12.1-43.9-12.1
	c-9.4,0-17.8,2.1-24.9,6.2c-6.9,4-12.7,9.9-17.2,17.6c-4.2,7.2-7.4,16-9.3,26.2c-3.7,19.5-2.9,44,2.3,70.7c0.7,3.4,1.4,6.8,2.2,10.1
	c-4.2,1.3-8.2,2.6-12.1,3.9c-25.2,8.8-46.3,20.3-61,33.2c-7.6,6.7-13.5,13.8-17.5,21.1c-4.3,7.7-6.5,15.7-6.5,23.6
	c0,15.9,8.8,31.9,25.4,46.5c15.7,13.7,37.8,25.7,64,34.7c2.4,0.8,4.9,1.6,7.4,2.4c-0.9,3.8-1.7,7.6-2.4,11.4
	c-5,26.2-5.6,50.2-1.7,69.4c2,9.9,5.2,18.6,9.5,25.7c4.6,7.6,10.4,13.4,17.2,17.4c7.2,4.2,15.7,6.3,25.3,6.3
	c13,0,27.5-3.9,43.2-11.5c15.3-7.5,31-18.1,46.5-31.7c2.4-2.1,4.9-4.3,7.3-6.7h3.7v-36.9l-1.3-1.6l-0.6-0.8l-16.9-20.8l-9.4-11.6
	c-4.7-5.8-12.3-16.7-21.4-30.5c-7.2-11-12.4-19.8-14.9-24l-0.3-0.5c-4.3-7.5-7.6-13.5-10.1-18.3c-3.2-6-6.4-12.2-9.5-18.4
	L192.6,254.9L192.6,254.9L192.6,254.9z M175.5,218.3c-2.9-7.3-5.5-14.6-7.8-21.7c7.3-1.5,14.9-2.9,22.7-4c-2.6,4.2-5.1,8.6-7.6,12.8
	C180.3,209.7,177.8,214,175.5,218.3L175.5,218.3z M167.4,316.1c2.4-7.4,5.1-14.9,8.1-22.5c2.4,4.4,4.8,8.7,7.3,13
	c2.6,4.5,5.3,9,8,13.5C182.7,318.9,174.8,317.5,167.4,316.1L167.4,316.1L167.4,316.1z M154.3,102.2c1.9-13.1,6.2-22.4,11.7-25.6
	c2.3-1.3,5.4-2,9.1-2c8.1,0,18.7,3.2,30.4,9.2c12.8,6.6,26.6,16.3,40,28.2c0.8,0.7,1.7,1.5,2.6,2.3c-11.8,13.1-23.4,27.6-34.6,43.2
	c-19.1,1.9-37.4,4.6-54.5,8.3c-0.6-2.7-1.2-5.4-1.7-8.1l-0.1-0.3C153.1,136.5,152.1,117.4,154.3,102.2L154.3,102.2L154.3,102.2z
	 M156.7,256c-8.1,17.8-14.9,35.3-20.4,52.3c-1.9-0.6-3.8-1.2-5.6-1.8c-21.8-7.5-39.9-17.1-52.5-27.8c-9.6-8.2-15.3-16.9-15.3-23.2
	s5.7-14.8,15.7-22.9c11.6-9.4,28.2-18,47.8-24.9c3.3-1.2,6.7-2.3,10.1-3.3C142,221.2,148.8,238.5,156.7,256L156.7,256L156.7,256z
	 M156.8,356.4c0.6-3.2,1.3-6.4,2-9.5c16.9,3.5,35.4,6.1,55.1,7.8c11.3,15.7,23,30.3,34.9,43.4c-1.5,1.4-2.9,2.7-4.4,4
	c-17.2,15-34.5,25.9-50,31.5l-0.3,0.1c-6.9,2.5-13.1,3.7-18.4,3.7c-3.9,0-7-0.7-9.3-2c-5.6-3.2-10-12.4-12-25
	C152,395.4,152.8,376.8,156.8,356.4L156.8,356.4L156.8,356.4z"/>
<path class="st0" d="M469,273.1c-7.9-14.6-19.6-24.1-35-28.4c-0.2-0.1-0.4-0.3-0.4-0.6c0-0.2,0.1-0.4,0.3-0.6
	c11.5-6.4,20.3-15.5,26.5-27.1c6.2-11.7,9.3-25.8,9.3-42.2c0-27.1-6.9-47.3-20.5-60.7c-13.7-13.4-31.9-20.1-54.5-20.1H272.3
	c-0.3,0-0.5,0.3-0.5,0.6v324.7c0,0.3,0.2,0.6,0.5,0.6h115.6c16.3,0,30.3-2.4,42.1-7.1c11.8-4.7,21.4-11.1,29-19.2
	c7.6-8,13.1-17.6,16.6-28.8c3.5-11,5.3-23,5.3-35.8C481,306.3,477,287.9,469,273.1L469,273.1L469,273.1z M316.2,140.3
	c0-0.3,0.2-0.6,0.5-0.6h71.8c12,0,21.2,3.4,27.6,10.1c6.4,6.7,9.6,18.3,9.6,34.7c0,14.6-3.5,25.8-10.6,33.6s-15.9,11.7-26.6,11.7
	h-71.8c-0.3,0-0.5-0.3-0.5-0.6V140.3L316.2,140.3z M425.8,359.3c-7.4,9-17.9,13.5-31.3,13.5h-77.8c-0.3,0-0.5-0.3-0.5-0.6V271.5
	c0-0.3,0.2-0.6,0.5-0.6h77.8c13.5,0,23.8,4.2,31.3,13S437,305,437,321.2C437,337.6,433.2,350.4,425.8,359.3L425.8,359.3L425.8,359.3
	z"/>
</svg>
