<?xml version="1.0" encoding="UTF-8"?>
<svg id="Layer_1" data-name="Layer 1" xmlns="http://www.w3.org/2000/svg" viewBox="0 0 448 448.01">
  <path d="M232,448.01C103.87,448.01,0,344.14,0,216.01,0,122.01,54,37.73,137.61,1.34c8.1-3.53,17.53,.17,21.06,8.28,1.78,4.08,1.78,8.71,0,12.78-9.6,22.04-14.67,50.27-14.67,81.61,0,110.28,89.72,200,200,200,31.34,0,59.57-5.07,81.61-14.67,8.1-3.53,17.53,.17,21.06,8.28,1.78,4.08,1.78,8.71,0,12.78-36.39,83.61-120.67,137.61-214.67,137.61Z" style="fill: #00afaf;"/>
</svg>