<?xml version="1.0" encoding="UTF-8"?>
<svg id="Layer_1" data-name="Layer 1" xmlns="http://www.w3.org/2000/svg" viewBox="0 0 460 460">
  <path d="M230,92c-12.15,0-22-9.85-22-22V22c0-12.15,9.85-22,22-22s22,9.85,22,22v48c0,12.15-9.85,22-22,22Z" style="fill: #00afaf;"/>
  <path d="M230,460c-12.15,0-22-9.85-22-22v-48c0-12.15,9.85-22,22-22s22,9.85,22,22v48c0,12.15-9.85,22-22,22Z" style="fill: #00afaf;"/>
  <path d="M343.14,138.86c-12.15,0-22-9.85-22-22,0-5.83,2.32-11.42,6.44-15.55l33.94-33.94c8.7-8.48,22.63-8.29,31.11,.41,8.32,8.54,8.32,22.16,0,30.7l-33.94,33.94c-4.12,4.13-9.72,6.45-15.55,6.44Z" style="fill: #00afaf;"/>
  <path d="M82.92,399.08c-12.15,0-22-9.85-22-22,0-5.84,2.32-11.43,6.45-15.56l33.94-33.94c8.48-8.7,22.41-8.89,31.11-.41,8.7,8.48,8.89,22.41,.41,31.11-.13,.14-.27,.27-.41,.41l-33.94,33.94c-4.12,4.13-9.72,6.46-15.56,6.45Z" style="fill: #00afaf;"/>
  <path d="M438,252h-48c-12.15,0-22-9.85-22-22s9.85-22,22-22h48c12.15,0,22,9.85,22,22s-9.85,22-22,22Z" style="fill: #00afaf;"/>
  <path d="M70,252H22c-12.15,0-22-9.85-22-22s9.85-22,22-22h48c12.15,0,22,9.85,22,22s-9.85,22-22,22Z" style="fill: #00afaf;"/>
  <path d="M377.08,399.08c-5.84,0-11.44-2.32-15.56-6.45l-33.94-33.94c-8.48-8.7-8.3-22.63,.41-31.11,8.54-8.32,22.16-8.32,30.7,0l33.94,33.94c8.59,8.59,8.6,22.52,0,31.11-4.13,4.13-9.72,6.45-15.56,6.45h0Z" style="fill: #00afaf;"/>
  <path d="M116.86,138.86c-5.83,.01-11.43-2.31-15.55-6.44l-33.94-33.94c-8.48-8.7-8.29-22.63,.41-31.11,8.54-8.32,22.16-8.32,30.7,0l33.94,33.94c8.59,8.6,8.58,22.52-.01,31.11-4.12,4.12-9.72,6.44-15.55,6.44Z" style="fill: #00afaf;"/>
  <path d="M230,332c-56.33,0-102-45.67-102-102s45.67-102,102-102,102,45.67,102,102c-.07,56.31-45.69,101.93-102,102Z" style="fill: #00afaf;"/>
</svg>