<?xml version="1.0" encoding="UTF-8"?>
<svg id="Layer_1" data-name="Layer 1" xmlns="http://www.w3.org/2000/svg" viewBox="0 0 512 512">
  <defs>
    <style>
      .cls-1 {
        fill: none;
      }

      .cls-2 {
        fill: #010101;
      }
    </style>
  </defs>
  <path id="_Group_" data-name=" Group " class="cls-2" d="M192.57,254.9c3.38-6.9,6.94-13.82,10.61-20.59l.03-.06,3.89-7.55,5.74-9.52,.04-.06c2.14-3.65,4.37-7.33,6.61-10.95l3.95-6.53c5.26-8.71,9.49-15.06,16.16-24.27,3.59-4.95,7-9.3,12.4-16.05h.01s.27-.35,.27-.35l.1-.13c2.19-2.8,4.41-5.55,6.58-8.19l.07-.09,.04-.05c5.04-6.24,10.18-12.5,15.27-18.61l2.02-2.43v-35.85h-3.66c-1.95-1.84-3.95-3.66-5.94-5.43-16.14-14.32-32.23-25.56-47.85-33.37-16.01-8.02-30.8-12.08-43.94-12.08-9.39,0-17.78,2.1-24.93,6.24-6.88,3.98-12.67,9.92-17.19,17.64-4.24,7.24-7.37,16.05-9.29,26.18-3.71,19.53-2.91,43.99,2.33,70.7,.66,3.36,1.39,6.77,2.17,10.15-4.17,1.27-8.23,2.58-12.08,3.92-25.22,8.79-46.31,20.28-60.99,33.23-7.61,6.71-13.5,13.79-17.53,21.07-4.28,7.73-6.45,15.67-6.45,23.58,0,15.86,8.79,31.93,25.41,46.51,15.65,13.73,37.78,25.72,63.98,34.68,2.43,.83,4.91,1.63,7.4,2.4-.87,3.79-1.68,7.61-2.4,11.42-4.98,26.24-5.56,50.25-1.69,69.44,2.01,9.94,5.2,18.59,9.49,25.71,4.56,7.57,10.35,13.42,17.2,17.37,7.22,4.16,15.72,6.27,25.26,6.27,12.99,0,27.51-3.85,43.16-11.45,15.34-7.45,31.01-18.11,46.55-31.7,2.4-2.09,4.86-4.33,7.33-6.67h3.68v-36.88l-1.34-1.65-.63-.78-16.88-20.84-9.38-11.58c-4.73-5.84-12.32-16.66-21.36-30.45-7.19-10.96-12.43-19.77-14.91-24.03l-.27-.47c-4.33-7.47-7.55-13.49-10.14-18.32-3.24-6.05-6.43-12.24-9.5-18.4l.56-1.09,.03-.06Zm-17.1-36.56c-2.86-7.34-5.48-14.62-7.82-21.74,7.31-1.51,14.91-2.86,22.69-4.04-2.6,4.25-5.15,8.55-7.61,12.82-2.47,4.28-4.89,8.6-7.26,12.96Zm-8.09,97.72c2.42-7.37,5.14-14.92,8.12-22.54,2.39,4.38,4.84,8.73,7.31,13.01,2.59,4.48,5.29,8.98,8.03,13.45-8.13-1.12-15.99-2.44-23.46-3.91h0Zm-13.05-213.84c1.9-13.06,6.16-22.39,11.71-25.6,2.3-1.33,5.36-2.01,9.08-2.01,8.14,0,18.66,3.19,30.43,9.23,12.76,6.56,26.6,16.31,40.01,28.22,.83,.74,1.68,1.51,2.55,2.3-11.8,13.05-23.43,27.55-34.61,43.16-19.05,1.86-37.36,4.64-54.51,8.27-.62-2.72-1.2-5.45-1.73-8.14l-.05-.28c-4.09-20.88-5.08-39.97-2.88-55.16h0Zm2.39,153.74c-8.06,17.76-14.9,35.35-20.38,52.33-1.9-.59-3.78-1.21-5.64-1.84-21.78-7.45-39.92-17.06-52.46-27.79-9.59-8.22-15.32-16.88-15.32-23.18s5.73-14.8,15.72-22.88c11.63-9.4,28.18-18,47.83-24.85,3.34-1.16,6.74-2.27,10.15-3.31,5.4,16.73,12.16,34.04,20.09,51.52h0Zm.03,100.43c.6-3.17,1.27-6.36,1.99-9.54,16.92,3.46,35.44,6.07,55.14,7.76,11.29,15.72,23.02,30.32,34.9,43.44-1.47,1.35-2.95,2.68-4.42,3.97-17.21,15.04-34.49,25.92-49.97,31.45l-.32,.11c-6.94,2.45-13.13,3.69-18.4,3.69-3.89,0-7.02-.67-9.33-2-5.61-3.23-9.97-12.36-11.97-25.05-2.34-14.78-1.52-33.41,2.36-53.85h0Z"/>
  <path class="cls-2" d="M468.97,273.07c-7.93-14.58-19.6-24.05-35.01-28.39-.24-.1-.4-.34-.38-.6-.01-.23,.1-.44,.29-.57,11.47-6.38,20.29-15.46,26.47-27.05,6.22-11.69,9.34-25.75,9.34-42.19,0-27.12-6.86-47.29-20.53-60.71-13.66-13.42-31.85-20.09-54.5-20.09h-122.3c-.26,0-.48,.28-.48,.62V418.82c0,.34,.21,.62,.48,.62h115.58c16.27,0,30.31-2.37,42.11-7.12,11.82-4.74,21.44-11.14,29.02-19.18,7.57-8.04,13.09-17.62,16.63-28.76,3.54-11.04,5.31-23.01,5.31-35.79,0-22.28-4.03-40.72-12.03-55.51h0Zm-152.75-132.8c0-.34,.21-.62,.48-.62h71.78c12.04,0,21.25,3.38,27.63,10.06,6.37,6.67,9.56,18.27,9.56,34.72,0,14.63-3.54,25.78-10.63,33.64-7.09,7.86-15.94,11.7-26.57,11.7h-71.78c-.26,0-.48-.28-.48-.62v-88.87Zm109.58,219.04c-7.37,9.04-17.85,13.53-31.31,13.53h-77.79c-.26,0-.48-.28-.48-.62v-100.74c0-.34,.21-.62,.48-.62h77.78c13.46,0,23.8,4.21,31.31,12.97,7.51,8.77,11.19,21.11,11.19,37.28,0,16.45-3.76,29.24-11.19,38.19h0Z"/>
  <rect class="cls-1" width="512" height="512"/>
</svg>