<?xml version="1.0" encoding="utf-8"?>
<!-- Generator: Adobe Illustrator 27.0.0, SVG Export Plug-In . SVG Version: 6.00 Build 0)  -->
<svg version="1.1" id="Layer_1" xmlns="http://www.w3.org/2000/svg" xmlns:xlink="http://www.w3.org/1999/xlink" x="0px" y="0px"
	 viewBox="0 0 512 512" style="enable-background:new 0 0 512 512;" xml:space="preserve">
<path d="M256,26c-7.1,0-14.3,1.8-20.7,5.4L66.9,126C54,133.3,46,146.8,46,161.4v189.3c0,14.5,8,28.1,20.9,35.3l168.4,94.6
	c6.4,3.6,13.5,5.4,20.7,5.4s14.3-1.8,20.7-5.4L445.1,386c12.9-7.3,20.9-20.8,20.9-35.4V161.4c0-14.5-8-28.1-20.9-35.3L276.7,31.4
	C270.3,27.8,263.1,26,256,26z M256,136c37.8,0,72.8,17.5,95.4,47.4l-43.8,25.4C294.4,194.4,275.7,186,256,186c-38.6,0-70,31.4-70,70
	s31.4,70,70,70c19.7,0,38.4-8.4,51.6-22.8l43.8,25.4C328.8,358.5,293.8,376,256,376c-66.2,0-120-53.8-120-120S189.8,136,256,136z
	 M356,206h20v20h20v-20h20v20h20v20h-20v20h20v20h-20v20h-20v-20h-20v20h-20v-20h-20v-20h20v-20h-20v-20h20V206z M376,246v20h20v-20
	H376z"/>
</svg>
