<?xml version="1.0" encoding="utf-8"?>
<!-- Generator: Adobe Illustrator 27.0.0, SVG Export Plug-In . SVG Version: 6.00 Build 0)  -->
<svg version="1.1" id="Layer_1" xmlns="http://www.w3.org/2000/svg" xmlns:xlink="http://www.w3.org/1999/xlink" x="0px" y="0px"
	 viewBox="0 0 669 138.4" style="enable-background:new 0 0 669 138.4;" xml:space="preserve">
<style type="text/css">
	.st0{fill:url(#SVGID_1_);}
</style>
<linearGradient id="SVGID_1_" gradientUnits="userSpaceOnUse" x1="164.3217" y1="-3.4193" x2="164.4117" y2="-2.4293" gradientTransform="matrix(669 0 0 138.4 -109636.5156 474.2012)">
	<stop  offset="0" style="stop-color:#00AFAF"/>
	<stop  offset="0.21" style="stop-color:#0AA1A4"/>
	<stop  offset="0.62" style="stop-color:#257C88"/>
	<stop  offset="1" style="stop-color:#44546A"/>
</linearGradient>
<path class="st0" d="M131.6,51.4L131.6,51.4c0,56.8-30.8,85.2-92.4,85.2l0,0c-9.9,0-22.9-1.2-39.2-3.6h0L22.4,14.8l0,0
	c1.1-5.3,1.9-9.5,2.6-12.6l0,0C45.3,0.7,59.9,0,68.9,0l0,0c9,0,17.6,0.9,25.9,2.8l0,0c8.3,1.9,15.1,4.9,20.6,9l0,0
	C126.2,19.9,131.6,33.1,131.6,51.4z M90.4,44L90.4,44c0-19.9-7.1-29.8-21.4-29.8h-2c-0.7,0-1.3,0.1-2,0.2l0,0L44.4,121.8l0,0
	c0.5,0.3,1.1,0.4,1.6,0.4h1.6c4.9,0,10-1.5,15.1-4.6l0,0c5.1-3.1,9.7-7.7,13.7-14l0,0C85.7,89.1,90.4,69.2,90.4,44z M228.2,138.4
	L228.2,138.4c-17.1,0-26.4-12.1-28-36.4h-34.4c-2.7,6.1-4.9,11.9-6.8,17.2l0,0l-5.2,15.2h-28l63-132h43l8.4,97.2l0,0
	c1.3,14,4.7,23.1,10,27.2l0,0C246.3,134.5,239,138.4,228.2,138.4L228.2,138.4z M183,62l-11,25.4h27.6L197.2,36v-5.4L183,62L183,62z
	 M282.4,134.4h-22l24-132h43l31.2,90.8l16.6-90.8l22.2,0.2L373,134.4h-45.8L298.4,47L282.4,134.4L282.4,134.4z M443.8,134.4h-43.6
	l25.4-132h44L443.8,134.4z M559.4,103.6L559.4,103.6c2.5,3.2,3.8,7.4,3.8,12.6l0,0c0,7.2-2.7,12.7-8,16.5l0,0
	c-5.3,3.8-12.2,5.7-20.6,5.7l0,0c-4.8,0-10.9-0.5-18.2-1.6l0,0c-14.4-2.3-23.8-3.4-28.2-3.4l0,0c-4.4,0-7.5,0.1-9.2,0.3l0,0
	c-1.7,0.2-4,0.4-6.8,0.7l0,0l24.6-132H583c0,8.1-2,14.3-5.9,18.6l0,0c-3.9,4.3-9.8,6.4-17.5,6.4l0,0c-7.7,0-15.5-1.8-23.4-5.4l0,0
	L530,57h35.6c0,7.1-1.7,12.6-5.2,16.5l0,0c-3.5,3.9-8.1,5.9-13.9,5.9l0,0c-5.8,0-10.5-0.7-14.1-2l0,0c-3.6-1.3-5.6-2.2-6-2.6l0,0
	l-7.2,37.8l0,0c3.2,0.4,7.8,0.6,13.8,0.6l0,0C543.3,113.2,552.1,110,559.4,103.6L559.4,103.6z M665.2,103.6L665.2,103.6
	c2.5,3.2,3.8,7.9,3.8,14.1l0,0c0,6.2-2.4,11.2-7.1,15l0,0c-4.7,3.8-11.2,5.7-19.5,5.7l0,0c-4.8,0-10.9-0.5-18.4-1.6l0,0
	c-14.7-2.3-24.1-3.4-28.3-3.4l0,0c-4.2,0-7.2,0.1-8.9,0.3l0,0c-1.7,0.2-4,0.4-6.8,0.7l0,0l24.2-132H648l-20,110l0,0
	c1.7,0.3,3.4,0.4,5,0.4h5C649.2,112.8,658.3,109.7,665.2,103.6L665.2,103.6z"/>
</svg>
