<?xml version="1.0" encoding="utf-8"?>
<!-- Generator: Adobe Illustrator 27.0.0, SVG Export Plug-In . SVG Version: 6.00 Build 0)  -->
<svg version="1.1" xmlns="http://www.w3.org/2000/svg" xmlns:xlink="http://www.w3.org/1999/xlink" x="0px" y="0px"
	 viewBox="0 0 2043.9 1893.9" style="enable-background:new 0 0 2043.9 1893.9;" xml:space="preserve">
<style type="text/css">
	
		.st0{clip-path:url(#SVGID_00000089531893482130239620000000669794994353486994_);fill:none;stroke:#00B0B0;stroke-width:25;stroke-miterlimit:10;}
	
		.st1{clip-path:url(#SVGID_00000155832240083544698970000009652094129877074048_);fill:none;stroke:#00B0B0;stroke-width:25;stroke-miterlimit:10;}
	
		.st2{clip-path:url(#SVGID_00000062889852383034177270000004990964988869400460_);fill:none;stroke:#00B0B0;stroke-width:25;stroke-miterlimit:10;}
	
		.st3{clip-path:url(#SVGID_00000176757531383964518510000008231339125617228452_);fill:none;stroke:#00B0B0;stroke-width:25;stroke-miterlimit:10;}
	.st4{clip-path:url(#SVGID_00000147205245274550982840000006447303239743261824_);fill:#00B0B0;}
	.st5{clip-path:url(#SVGID_00000132076384727763015730000013002542750010120844_);fill:#00B0B0;}
	.st6{clip-path:url(#SVGID_00000057115722199399146000000005324661546208196256_);fill:#00B0B0;}
	.st7{clip-path:url(#SVGID_00000033333002929261178590000009522213710178371972_);fill:#00B0B0;}
	.st8{display:none;}
	.st9{display:inline;fill:none;stroke:#231F20;stroke-miterlimit:10;}
</style>
<g id="Layer_1">
	<g>
		<defs>
			
				<rect id="SVGID_1_" x="519.8" y="456.1" transform="matrix(0.7071 -0.7071 0.7071 0.7071 -215.597 610.6357)" width="219" height="218.9"/>
		</defs>
		<clipPath id="SVGID_00000046331740719394725010000013817084891696971198_">
			<use xlink:href="#SVGID_1_"  style="overflow:visible;"/>
		</clipPath>
		
			<path style="clip-path:url(#SVGID_00000046331740719394725010000013817084891696971198_);fill:none;stroke:#00B0B0;stroke-width:25;stroke-miterlimit:10;" d="
			M741.3,590.7l-86.8,86.8c-13.9,13.9-36.4,13.9-50.3,0l-86.8-86.8c-13.9-13.9-13.9-36.4,0-50.3l86.9-86.9
			c13.9-13.9,36.4-13.9,50.3,0l86.9,86.9C755.2,554.3,755.1,576.9,741.3,590.7z"/>
	</g>
	<g>
		<defs>
			
				<rect id="SVGID_00000029756791224347745540000001155068062991163825_" x="1303.9" y="1240.1" transform="matrix(0.7071 -0.7071 0.7071 0.7071 -540.3594 1394.6815)" width="219" height="218.9"/>
		</defs>
		<clipPath id="SVGID_00000137830038804258508270000007096358326970628014_">
			<use xlink:href="#SVGID_00000029756791224347745540000001155068062991163825_"  style="overflow:visible;"/>
		</clipPath>
		
			<path style="clip-path:url(#SVGID_00000137830038804258508270000007096358326970628014_);fill:none;stroke:#00B0B0;stroke-width:25;stroke-miterlimit:10;" d="
			M1525.3,1374.8l-86.8,86.8c-13.9,13.9-36.4,13.9-50.3,0l-86.8-86.8c-13.9-13.9-13.9-36.4,0-50.3l86.9-86.9
			c13.9-13.9,36.4-13.9,50.3,0l86.9,86.9C1539.2,1338.3,1539.2,1360.9,1525.3,1374.8z"/>
	</g>
	<g>
		<defs>
			
				<rect id="SVGID_00000065793214112557159040000009048799980770601144_" x="522.7" y="1232.8" transform="matrix(0.7071 -0.7071 0.7071 0.7071 -763.9767 840.1606)" width="219" height="218.9"/>
		</defs>
		<clipPath id="SVGID_00000110466594676112517730000002916356302107628182_">
			<use xlink:href="#SVGID_00000065793214112557159040000009048799980770601144_"  style="overflow:visible;"/>
		</clipPath>
		
			<path style="clip-path:url(#SVGID_00000110466594676112517730000002916356302107628182_);fill:none;stroke:#00B0B0;stroke-width:25;stroke-miterlimit:10;" d="
			M744.1,1367.5l-86.8,86.8c-13.9,13.9-36.4,13.9-50.3,0l-86.8-86.8c-13.9-13.9-13.9-36.4,0-50.3l86.9-86.9
			c13.9-13.9,36.4-13.9,50.3,0l86.9,86.9C758,1331,758,1353.6,744.1,1367.5z"/>
	</g>
	<g>
		<defs>
			
				<rect id="SVGID_00000031893090236765611340000005629632202253531548_" x="1302.3" y="453.2" transform="matrix(0.7071 -0.7071 0.7071 0.7071 15.6098 1163.0759)" width="219" height="218.9"/>
		</defs>
		<clipPath id="SVGID_00000061461626845265012730000008288297306274337703_">
			<use xlink:href="#SVGID_00000031893090236765611340000005629632202253531548_"  style="overflow:visible;"/>
		</clipPath>
		
			<path style="clip-path:url(#SVGID_00000061461626845265012730000008288297306274337703_);fill:none;stroke:#00B0B0;stroke-width:25;stroke-miterlimit:10;" d="
			M1523.7,587.9l-86.8,86.8c-13.9,13.9-36.4,13.9-50.3,0l-86.8-86.8c-13.9-13.9-13.9-36.4,0-50.3l86.9-86.9
			c13.9-13.9,36.4-13.9,50.3,0l86.9,86.9C1537.6,551.4,1537.6,574,1523.7,587.9z"/>
	</g>
	<g>
		<defs>
			<rect id="SVGID_00000014619681196470221980000016796703507727355552_" x="1464" y="840.2" width="219" height="218.9"/>
		</defs>
		<clipPath id="SVGID_00000036952140942659789960000003899110910740475042_">
			<use xlink:href="#SVGID_00000014619681196470221980000016796703507727355552_"  style="overflow:visible;"/>
		</clipPath>
		<path style="clip-path:url(#SVGID_00000036952140942659789960000003899110910740475042_);fill:#00B0B0;" d="M1634.9,1059.1h-122.8
			c-26.5,0-48.1-21.5-48.1-48.1V888.2c0-26.5,21.5-48.1,48.1-48.1h122.8c26.5,0,48.1,21.5,48.1,48.1v122.8
			C1682.9,1037.6,1661.4,1059.1,1634.9,1059.1"/>
	</g>
	<g>
		<defs>
			<rect id="SVGID_00000057109123891436709530000003016271844180260524_" x="360.9" y="840.2" width="219" height="218.9"/>
		</defs>
		<clipPath id="SVGID_00000179645580451219993840000011686648438736756652_">
			<use xlink:href="#SVGID_00000057109123891436709530000003016271844180260524_"  style="overflow:visible;"/>
		</clipPath>
		<path style="clip-path:url(#SVGID_00000179645580451219993840000011686648438736756652_);fill:#00B0B0;" d="M531.8,1059.1H409
			c-26.5,0-48.1-21.5-48.1-48.1V888.2c0-26.5,21.5-48.1,48.1-48.1h122.8c26.5,0,48.1,21.5,48.1,48.1v122.8
			C579.9,1037.6,558.4,1059.1,531.8,1059.1"/>
	</g>
	<g>
		<defs>
			<rect id="SVGID_00000170265189353222606680000002777140245377608840_" x="912.5" y="280.4" width="219" height="218.9"/>
		</defs>
		<clipPath id="SVGID_00000005988841032715831430000001070866463303989169_">
			<use xlink:href="#SVGID_00000170265189353222606680000002777140245377608840_"  style="overflow:visible;"/>
		</clipPath>
		<path style="clip-path:url(#SVGID_00000005988841032715831430000001070866463303989169_);fill:#00B0B0;" d="M1083.3,499.3H960.5
			c-26.5,0-48.1-21.5-48.1-48.1V328.5c0-26.5,21.5-48.1,48.1-48.1h122.8c26.5,0,48.1,21.5,48.1,48.1v122.8
			C1131.4,477.8,1109.9,499.3,1083.3,499.3"/>
	</g>
	<g>
		<defs>
			<rect id="SVGID_00000054240667511848910770000018145807078035454858_" x="912.5" y="1394.5" width="219" height="218.9"/>
		</defs>
		<clipPath id="SVGID_00000156561974885245389310000016395010825905677494_">
			<use xlink:href="#SVGID_00000054240667511848910770000018145807078035454858_"  style="overflow:visible;"/>
		</clipPath>
		<path style="clip-path:url(#SVGID_00000156561974885245389310000016395010825905677494_);fill:#00B0B0;" d="M1083.3,1613.5H960.5
			c-26.5,0-48.1-21.5-48.1-48.1v-122.8c0-26.5,21.5-48.1,48.1-48.1h122.8c26.5,0,48.1,21.5,48.1,48.1v122.8
			C1131.4,1592,1109.9,1613.5,1083.3,1613.5"/>
	</g>
</g>
<g id="Layer_2" class="st8">
	<circle class="st9" cx="1022" cy="952.5" r="551.5"/>
	<rect x="630.2" y="564.7" class="st9" width="783.6" height="775.5"/>
</g>
</svg>
