<?xml version="1.0" encoding="utf-8"?>
<!-- Generator: Adobe Illustrator 27.0.0, SVG Export Plug-In . SVG Version: 6.00 Build 0)  -->
<svg version="1.1" id="Layer_1" xmlns="http://www.w3.org/2000/svg" xmlns:xlink="http://www.w3.org/1999/xlink" x="0px" y="0px"
	 viewBox="0 0 48 48" style="enable-background:new 0 0 48 48;" xml:space="preserve">
<style type="text/css">
	.st0{fill:#00AFAF;}
</style>
<path class="st0" d="M37.6,45c-0.3,0-0.6,0-0.9,0s-0.6-0.1-0.9-0.2l-25.2-5.4c-1.4-0.3-2.7-0.9-3.8-1.8s-2-2-2.7-3.4L4,33.8
	c0-0.3,0.1-0.5,0.3-0.7s0.5-0.3,0.7-0.3c0.2,0,0.4,0.1,0.5,0.2c0.1,0.1,0.2,0.2,0.3,0.4c0.6,1.1,1.3,2,2.2,2.7s1.8,1.2,2.9,1.5
	l1.1,0.2l7.4-5l-1.6-7.8c-0.1-0.4-0.1-0.9,0-1.4s0.2-0.9,0.4-1.3l5.5-8.8h-5.9l-3.6,5.9l-2.6-1.5l4.6-7.4h11.1
	c0.8,0,1.4,0.2,1.9,0.6s0.8,0.8,1,1.2l1,2.4c0.7,1.6,1.8,2.9,3.2,4c1.4,1.1,3.1,1.6,5,1.7v3c-2.2-0.1-4.2-0.7-6-1.9
	c-1.8-1.2-3.4-2.8-4.5-4.6l-4.2,6.8l6.9,5.5l2,13l2.7,0.5c0.2,0.1,0.5,0.1,0.7,0.1c0.2,0,0.5,0,0.7,0c0.8,0,1.6-0.2,2.5-0.5
	c0.8-0.3,1.6-0.8,2.2-1.5c0,0,0.2-0.1,0.7-0.2c0.3,0,0.6,0.1,0.8,0.3c0.2,0.2,0.3,0.5,0.3,0.8c0,0.1,0,0.3-0.1,0.4s-0.1,0.2-0.2,0.3
	c-0.9,0.8-1.8,1.4-2.9,1.8C39.7,44.8,38.6,45,37.6,45z M30.4,41.7l-1.6-10.8L22,26l1,8l-6.8,4.5L30.4,41.7z M32.3,9.3
	c-1,0-1.9-0.4-2.6-1.1c-0.7-0.7-1.1-1.6-1.1-2.6c0-1,0.4-1.9,1.1-2.6S31.4,2,32.3,2c1,0,1.9,0.4,2.6,1.1S36,4.7,36,5.7
	s-0.4,1.9-1.1,2.6S33.3,9.3,32.3,9.3z"/>
</svg>
