<?xml version="1.0" encoding="utf-8"?>
<!-- Generator: Adobe Illustrator 27.0.0, SVG Export Plug-In . SVG Version: 6.00 Build 0)  -->
<svg version="1.1" id="Layer_1" xmlns="http://www.w3.org/2000/svg" xmlns:xlink="http://www.w3.org/1999/xlink" x="0px" y="0px"
	 viewBox="0 0 48 48" style="enable-background:new 0 0 48 48;" xml:space="preserve">
<style type="text/css">
	.st0{fill:#00AFAF;}
</style>
<path class="st0" d="M14.1,46l6.1-31c0.2-0.8,0.6-1.4,1.1-1.9c0.6-0.4,1.2-0.6,1.9-0.6c0.7,0,1.3,0.2,1.9,0.4
	c0.6,0.3,1.1,0.7,1.4,1.3l2,3.2c0.6,1.1,1.5,2,2.6,2.9c1.1,0.8,2.4,1.5,3.9,1.9v-3.8h2V46h-2V25.3c-1.7-0.4-3.3-1-4.8-2
	c-1.5-0.9-2.8-2.1-4-3.5l-1.5,7.2l4.2,4.1V46h-3V33.8L21,29l-3.7,17H14.1z M15,25.9l-3.8-0.7c-0.3-0.1-0.6-0.3-0.9-0.6
	s-0.3-0.7-0.3-1.1l1.5-7.9c0.2-1,0.6-1.7,1.4-2.2c0.8-0.5,1.7-0.7,2.7-0.5l1.8,0.4L15,25.9z M26.5,10.3c-1,0-1.9-0.4-2.6-1.1
	c-0.7-0.7-1.1-1.6-1.1-2.6s0.4-1.9,1.1-2.6S25.5,3,26.5,3s1.9,0.4,2.6,1.1c0.7,0.7,1.1,1.6,1.1,2.6s-0.4,1.9-1.1,2.6
	C28.4,9.9,27.5,10.3,26.5,10.3z"/>
</svg>
